<svg width="44" height="44" viewBox="0 0 44 44" fill="none" xmlns="http://www.w3.org/2000/svg">
<path opacity="0.5" d="M29.3333 40.3334C25.8764 40.3334 24.1479 40.3334 23.0739 39.2595C22.153 38.3385 22.0218 36.9361 22.0031 34.3751L22 31.6251V28.8751V26.1251V23.3751V20.6251V17.8751V15.1251V12.3751L22.0031 9.62508C22.0218 7.06403 22.153 5.66168 23.0739 4.74069C24.1479 3.66675 25.8764 3.66675 29.3333 3.66675H33C36.457 3.66675 38.1855 3.66675 39.2594 4.74069C40.3333 5.81463 40.3333 7.54314 40.3333 11.0001V33.0001C40.3333 36.4571 40.3333 38.1855 39.2594 39.2595C38.1855 40.3334 36.457 40.3334 33 40.3334H29.3333Z" fill="#E3B621"/>
<path d="M27.5 15.125H22V17.875H27.5C28.2594 17.875 28.875 17.2594 28.875 16.5C28.875 15.7406 28.2594 15.125 27.5 15.125Z" fill="#E3B621"/>
<path d="M25.6667 9.625L22.0031 9.625L22 12.375H25.6667C26.4261 12.375 27.0417 11.7594 27.0417 11C27.0417 10.2406 26.4261 9.625 25.6667 9.625Z" fill="#E3B621"/>
<path d="M25.6667 20.625H22V23.375H25.6667C26.4261 23.375 27.0417 22.7594 27.0417 22C27.0417 21.2406 26.4261 20.625 25.6667 20.625Z" fill="#E3B621"/>
<path d="M27.5 26.125L22 26.125V28.875L27.5 28.875C28.2594 28.875 28.875 28.2594 28.875 27.5C28.875 26.7406 28.2594 26.125 27.5 26.125Z" fill="#E3B621"/>
<path d="M25.6667 31.625H22L22.0031 34.375H25.6667C26.4261 34.375 27.0417 33.7594 27.0417 33C27.0417 32.2406 26.4261 31.625 25.6667 31.625Z" fill="#E3B621"/>
<path d="M14.6667 27.4625L14.6667 12.8338C13.2569 13.4149 11.3973 13.9134 9.16708 13.9134C6.93653 13.9134 5.07665 13.4148 3.66675 12.8335L3.66675 27.4625C3.66675 28.604 3.66675 29.1749 3.73599 29.7351C3.81766 30.3958 3.97108 31.0457 4.19352 31.6732C4.38209 32.2052 4.63736 32.7157 5.14791 33.7368L7.84014 39.1213C8.09138 39.6237 8.60495 39.9411 9.16675 39.9411C9.72854 39.9411 10.2421 39.6237 10.4934 39.1213L13.1856 33.7368C13.6961 32.7157 13.9514 32.2052 14.14 31.6732C14.3624 31.0457 14.5158 30.3958 14.5975 29.7351C14.6667 29.1749 14.6667 28.6041 14.6667 27.4625Z" fill="#E3B621"/>
<path opacity="0.5" d="M9.16675 3.66675C12.2043 3.66675 14.6667 6.12918 14.6667 9.16675L14.6667 12.8337C13.2569 13.4148 11.3973 13.9133 9.16708 13.9133C6.93653 13.9133 5.07665 13.4147 3.66675 12.8334V9.16675C3.66675 6.12918 6.12918 3.66675 9.16675 3.66675Z" fill="#E3B621"/>
</svg>
