<svg width="15" height="11" viewBox="0 0 15 11" fill="none" xmlns="http://www.w3.org/2000/svg">
<path d="M14.2321 0.479269C14.4871 0.720345 14.6359 1.05282 14.6459 1.4036C14.6558 1.75438 14.526 2.09475 14.285 2.34986L6.78503 10.291C6.66348 10.4195 6.51741 10.5223 6.35545 10.5934C6.1935 10.6645 6.01894 10.7023 5.84209 10.7048C5.66525 10.7073 5.4897 10.6743 5.32582 10.6077C5.16195 10.5412 5.01306 10.4425 4.88797 10.3175L0.917385 6.34692C0.683597 6.09602 0.556321 5.76417 0.562371 5.42129C0.56842 5.0784 0.707324 4.75125 0.949817 4.50876C1.19231 4.26627 1.51946 4.12736 1.86235 4.12131C2.20523 4.11526 2.53708 4.24254 2.78797 4.47633L5.7968 7.48339L12.3615 0.532211C12.6026 0.277206 12.9351 0.128378 13.2858 0.11845C13.6366 0.108523 13.977 0.238308 14.2321 0.479269Z" fill="#FFC700"/>
</svg>
