<svg width="24" height="21" viewBox="0 0 24 21" fill="none" xmlns="http://www.w3.org/2000/svg">
<path d="M23 17.5C23 18.0304 22.7893 18.5391 22.4142 18.9142C22.0391 19.2893 21.5304 19.5 21 19.5H3C2.46957 19.5 1.96086 19.2893 1.58579 18.9142C1.21071 18.5391 1 18.0304 1 17.5V6.5C1 5.96957 1.21071 5.46086 1.58579 5.08579C1.96086 4.71071 2.46957 4.5 3 4.5H7L9 1.5H15L17 4.5H21C21.5304 4.5 22.0391 4.71071 22.4142 5.08579C22.7893 5.46086 23 5.96957 23 6.5V17.5Z" stroke="white" stroke-width="2" stroke-linecap="round" stroke-linejoin="round"/>
<path d="M12 15.5C14.2091 15.5 16 13.7091 16 11.5C16 9.29086 14.2091 7.5 12 7.5C9.79086 7.5 8 9.29086 8 11.5C8 13.7091 9.79086 15.5 12 15.5Z" stroke="white" stroke-width="2" stroke-linecap="round" stroke-linejoin="round"/>
</svg>
