<svg width="26" height="25" viewBox="0 0 26 25" fill="none" xmlns="http://www.w3.org/2000/svg">
<path d="M13.0938 25C19.999 25 25.5938 19.4052 25.5938 12.5C25.5938 5.59479 19.999 0 13.0938 0C6.18854 0 0.59375 5.59479 0.59375 12.5C0.59375 19.4052 6.18854 25 13.0938 25ZM6.31354 12.2292L18.3656 7.58229C18.925 7.38021 19.4135 7.71875 19.2323 8.56458L19.2333 8.56354L17.1812 18.2313C17.0292 18.9167 16.6219 19.0833 16.0521 18.7604L12.9271 16.4573L11.4198 17.9094C11.2531 18.076 11.1125 18.2167 10.7896 18.2167L11.0115 15.0365L16.8031 9.80417C17.0552 9.58229 16.7469 9.45729 16.4146 9.67813L9.25729 14.1844L6.17188 13.2219C5.50208 13.0094 5.4875 12.5521 6.31354 12.2292Z" fill="#454545"/>
</svg>
