<svg width="26" height="15" viewBox="0 0 26 15" fill="none" xmlns="http://www.w3.org/2000/svg">
<path d="M12.3262 14.5827H13.8201C13.8201 14.5827 14.2717 14.5326 14.5014 14.2838C14.7139 14.0553 14.7061 13.6265 14.7061 13.6265C14.7061 13.6265 14.6764 11.6187 15.6077 11.3229C16.525 11.0318 17.7032 13.2635 18.9517 14.1226C19.8956 14.7721 20.6128 14.6297 20.6128 14.6297L23.9521 14.5827C23.9521 14.5827 25.6991 14.4747 24.8709 13.0991C24.8037 12.9865 24.3881 12.0819 22.3879 10.2228C20.294 8.27596 20.5753 8.59208 23.0973 5.22587C24.6334 3.17579 25.2475 1.92383 25.0553 1.38861C24.8725 0.878439 23.7427 1.01302 23.7427 1.01302L19.9862 1.03493C19.9862 1.03493 19.708 0.997375 19.5002 1.12101C19.2986 1.24307 19.1689 1.52476 19.1689 1.52476C19.1689 1.52476 18.5736 3.11162 17.7798 4.46061C16.1062 7.30725 15.4358 7.45749 15.1624 7.28065C14.5264 6.86907 14.6858 5.62493 14.6858 4.7423C14.6858 1.98329 15.103 0.833055 13.8717 0.535715C13.4623 0.437123 13.1622 0.371395 12.1169 0.36044C10.7761 0.346356 9.64011 0.365135 8.99788 0.67969C8.56972 0.889393 8.24001 1.35731 8.44159 1.38392C8.69004 1.41678 9.25258 1.53572 9.55104 1.9426C9.93701 2.46686 9.92295 3.64684 9.92295 3.64684C9.92295 3.64684 10.1448 6.89411 9.40572 7.29786C8.89787 7.57486 8.20251 7.00991 6.71021 4.42618C5.94609 3.1038 5.36792 1.64057 5.36792 1.64057C5.36792 1.64057 5.25698 1.36827 5.05853 1.22273C4.81788 1.04589 4.48036 0.98955 4.48036 0.98955L0.908221 1.01146C0.908221 1.01146 0.372244 1.02711 0.175355 1.26029C0.000341974 1.46843 0.161291 1.89722 0.161291 1.89722C0.161291 1.89722 2.95837 8.44967 6.12423 11.7533C9.02913 14.7815 12.3262 14.5827 12.3262 14.5827Z" fill="#454545"/>
</svg>
