<svg width="26" height="25" viewBox="0 0 26 25" fill="none" xmlns="http://www.w3.org/2000/svg">
<path d="M8.37436 20.8717C8.14633 20.7571 7.896 20.7176 7.6477 20.7764C6.80346 20.975 5.44133 21.3146 4.45014 21.5639C3.88664 21.7057 3.37381 21.2041 3.50455 20.6385C3.75083 19.5703 4.09237 18.0846 4.25453 17.3417C4.30521 17.1106 4.27379 16.8724 4.17346 16.6585C3.57955 15.3867 3.21875 13.979 3.21875 12.5002C3.21875 6.75881 8.44936 2.17986 14.3803 3.29268C18.1069 3.99198 21.1018 6.98785 21.801 10.7134C22.9139 16.6444 18.3349 21.875 12.5935 21.875C11.125 21.875 9.65745 21.5203 8.37436 20.8717Z" stroke="#454545" stroke-width="1.5" stroke-linecap="round" stroke-linejoin="round"/>
<path d="M9.05289 8.81343C7.60867 10.2647 8.70323 12.5704 10.6289 14.496C12.5545 16.4217 14.8237 17.4798 16.275 16.0356L16.4088 15.9017C16.9905 15.321 16.9054 14.3552 16.2315 13.885C16.0136 13.7339 15.7855 13.5738 15.5433 13.4046C15.0193 13.0366 14.3027 13.0934 13.8497 13.5444L13.6045 13.7877C12.5494 13.1592 12.0143 12.5552 11.3018 11.485L11.545 11.2398C11.995 10.7857 12.0518 10.0691 11.6849 9.54517C11.5146 9.30294 11.3555 9.07491 11.2036 8.85702C10.7343 8.18305 9.76841 8.09892 9.18667 8.67965L9.05289 8.81343Z" stroke="#454545" stroke-width="1.5" stroke-linecap="round" stroke-linejoin="round"/>
</svg>
